<?xml version="1.0" encoding="utf-8"?>
<svg version="1.1" xmlns:xlink="http://www.w3.org/1999/xlink" width="19px" height="19px" xmlns="http://www.w3.org/2000/svg">
  <g transform="matrix(1 0 0 1 -25 -77 )">
    <path d="M 18.96890234375 9.5110400390625  C 18.96890234375 4.2776162109375  14.726484375 0.0351796875  9.493060546875 0.0351796875  C 4.25963671875 0.0351796875  0.0172001953125 4.2776162109375  0.0172001953125 9.5110400390625  C 0.0172001953125 14.744482421875  4.25963671875 18.986900390625  9.493060546875 18.986900390625  C 14.726484375 18.986900390625  18.96890234375 14.7444638671875  18.96890234375 9.5110400390625  Z M 1.3093671875 9.5110400390625  C 1.3093671875 4.9914150390625  4.97384375 1.3273466796875  9.493060546875 1.3273466796875  C 14.01309375 1.3273466796875  17.67675390625 4.9914150390625  17.67675390625 9.5110400390625  C 17.67675390625 11.131736328125  17.20561328125 12.6423662109375  16.392880859375 13.913529296875  C 15.0306142578125 12.4735185546875  13.221068359375 11.460525390625  11.1864912109375 11.0963896484375  C 12.4853935546875 10.470076171875  13.3834404296875 9.1451044921875  13.3834404296875 7.6068837890625  C 13.3834404296875 5.4658955078125  11.647927734375 3.7304013671875  9.506939453125 3.7304013671875  C 7.365951171875 3.7304013671875  5.63045703125 5.4658955078125  5.63045703125 7.606865234375  C 5.63045703125 9.1450859375  6.5284853515625 10.4700576171875  7.8273876953125 11.09637109375  C 5.784646484375 11.46197265625  3.9687548828125 12.4816826171875  2.6046328125 13.930970703125  C 1.7849423828125 12.656189453125  1.3093671875 11.1391396484375  1.3093671875 9.5110400390625  Z " fill-rule="nonzero" fill="#aaaaaa" stroke="none" transform="matrix(1 0 0 1 25 77 )" />
  </g>
</svg>