<?xml version="1.0" encoding="utf-8"?>
<svg version="1.1" xmlns:xlink="http://www.w3.org/1999/xlink" width="15px" height="9px" xmlns="http://www.w3.org/2000/svg">
  <g transform="matrix(1 0 0 1 -166 -332 )">
    <path d="M 1.18119673295455 8.65733245481928  C 1.06134588068182 8.82887801204819  0.863813920454545 8.92206325301205  0.6640625 8.92206325301205  C 0.544211647727273 8.92206325301205  0.424360795454545 8.89029555722892  0.320046164772727 8.82252447289157  C 0.0337357954545455 8.64038968373494  -0.0439453125 8.2718844126506  0.146928267045455 8.00080007530121  L 4.14417613636363 2.27837914156627  C 4.47931463068182 1.79974585843373  5.03861860795455 1.50324736445783  5.64231178977273 1.48630459337349  C 6.24600497159091 1.43335843373494  6.82306463068182 1.73621046686747  7.18705610795455 2.19790097891566  L 9.26669034090909 4.84520896084337  C 9.57741477272727 4.39834337349398  10.0790127840909 4.11031626506024  10.6494140625 4.05948795180723  C 11.3019353693182 4.00654179216868  11.9189453125 4.26703689759036  12.3095703125 4.76261295180723  L 14.8330965909091 7.97326807228916  C 15.0372869318182 8.23588102409638  14.9818004261364 8.60650414156626  14.7088068181818 8.80346385542169  C 14.4358132102273 9.00042356927711  14.0451882102273 8.94535956325301  13.8387784090909 8.68486445783132  L 11.3152521306818 5.4742093373494  C 11.1288174715909 5.23489269578313  10.8669211647727 5.23277484939759  10.7626065340909 5.24124623493976  C 10.6605113636364 5.24971762048193  10.4030539772727 5.30054593373494  10.2632279829545 5.56739457831325  L 9.91921164772727 6.22392695783133  C 9.82377485795455 6.4081795933735  9.63290127840909 6.53101468373494  9.41983309659091 6.55007530120482  C 9.20454545454545 6.56066453313253  8.99591619318182 6.48018637048193  8.8671875 6.31499435240964  L 6.19051846590909 2.90949736445783  C 6.06844815340909 2.75277673192771  5.87091619318182 2.66806287650603  5.67560369318182 2.67229856927711  C 5.47141335227273 2.67865210843374  5.28941761363636 2.77395519578313  5.17622514204546 2.93702936746988  L 1.18119673295455 8.65733245481928  Z M 14.9573863636364 1.21310240963855  C 14.9573863636364 0.558687876506025  14.4003018465909 0.0271084337349398  13.7144886363636 0.0271084337349398  C 13.0286754261364 0.0271084337349398  12.4715909090909 0.558687876506025  12.4715909090909 1.21310240963855  C 12.4715909090909 1.86751694277108  13.0286754261364 2.39909638554217  13.7144886363636 2.39909638554217  C 14.4003018465909 2.39909638554217  14.9573863636364 1.86751694277108  14.9573863636364 1.21310240963855  Z " fill-rule="nonzero" fill="#0000ff" stroke="none" transform="matrix(1 0 0 1 166 332 )" />
  </g>
</svg>