<?xml version="1.0" encoding="utf-8"?>
<svg version="1.1" xmlns:xlink="http://www.w3.org/1999/xlink" width="23px" height="23px" xmlns="http://www.w3.org/2000/svg">
  <g transform="matrix(1 0 0 1 -21 -401 )">
    <path d="M 22.96235546875 11.5133642578125  C 22.96235546875 5.1781669921875  17.826796875 0.0425859375  11.491599609375 0.0425859375  C 5.15640234375 0.0425859375  0.0208212890625 5.1781669921875  0.0208212890625 11.5133642578125  C 0.0208212890625 17.848583984375  5.15640234375 22.984142578125  11.491599609375 22.984142578125  C 17.826796875 22.984142578125  22.96235546875 17.8485615234375  22.96235546875 11.5133642578125  Z M 1.5850234375 11.5133642578125  C 1.5850234375 6.0422392578125  6.02096875 1.6067880859375  11.491599609375 1.6067880859375  C 16.96321875 1.6067880859375  21.39817578125 6.0422392578125  21.39817578125 11.5133642578125  C 21.39817578125 13.475259765625  20.82784765625 15.3039169921875  19.844013671875 16.842693359375  C 18.1949541015625 15.0995224609375  16.004451171875 13.873267578125  13.5415419921875 13.4324716796875  C 15.1138974609375 12.674302734375  16.2010068359375 11.0703896484375  16.2010068359375 9.2083330078125  C 16.2010068359375 6.6166103515625  14.100123046875 4.5157490234375  11.508400390625 4.5157490234375  C 8.916677734375 4.5157490234375  6.81581640625 6.6166103515625  6.81581640625 9.208310546875  C 6.81581640625 11.0703671875  7.9029033203125 12.6742802734375  9.4752587890625 13.43244921875  C 7.002466796875 13.87501953125  4.8042822265625 15.1094052734375  3.1529765625 16.863806640625  C 2.1607197265625 15.320650390625  1.5850234375 13.4842216796875  1.5850234375 11.5133642578125  Z " fill-rule="nonzero" fill="#aaaaaa" stroke="none" transform="matrix(1 0 0 1 21 401 )" />
  </g>
</svg>