<?xml version="1.0" encoding="utf-8"?>
<svg version="1.1" xmlns:xlink="http://www.w3.org/1999/xlink" width="30px" height="30px" xmlns="http://www.w3.org/2000/svg">
  <g transform="matrix(1 0 0 1 -210 -14 )">
    <path d="M 29.8351648197115 14.8681318629808  C 29.8351648197115 23.0439560336538  23.175824170673 29.70329671875  15 29.70329671875  C 6.82417582932703 29.70329671875  0.164835180288492 23.0439560697116  0.164835180288492 14.8681318629808  C 0.164835180288492 6.69230765624999  6.82417582932703 0.032967043269224  15 0.032967043269224  C 23.175824170673 0.032967043269224  29.8351648197115 6.69230769230768  29.8351648197115 14.8681318629808  Z M 12.3626373677885 11.8351648197115  L 12.4285714182693 8.07692307692307  L 4.78021979567302 14.3406593509615  L 12.4285714182693 19.3516483413462  L 12.4285714182693 15.5934065985577  C 12.4285714182693 15.5934065985577  16.1868131610577 14.8021978125  19.4175824278846 16.3186813341346  C 22.6483516947114 17.8351648557692  25.2197802403846 20.6703296754808  25.219780204327 20.6703296754808  C 25.2197801682692 20.6703296754808  24.2307692307693 15.8571428725961  20.8021978125 13.9450549399039  C 16.8461538461538 11.70329671875  12.3626373677885 11.8351648197115  12.3626373677885 11.8351648197115  Z " fill-rule="nonzero" fill="#e4e4e4" stroke="none" transform="matrix(1 0 0 1 210 14 )" />
  </g>
</svg>