<?xml version="1.0" encoding="utf-8"?>
<svg version="1.1" xmlns:xlink="http://www.w3.org/1999/xlink" width="12px" height="12px" viewBox="220 216.5  12 12" xmlns="http://www.w3.org/2000/svg">
  <path d="M 226 216.5  C 229.36 216.5  232 219.14  232 222.5  C 232 225.86  229.36 228.5  226 228.5  C 222.64 228.5  220 225.86  220 222.5  C 220 219.14  222.64 216.5  226 216.5  Z " fill-rule="nonzero" fill="#ffffff" stroke="none" />
  <path d="M 226 217  C 229.08 217  231.5 219.42  231.5 222.5  C 231.5 225.58  229.08 228  226 228  C 222.92 228  220.5 225.58  220.5 222.5  C 220.5 219.42  222.92 217  226 217  Z " stroke-width="1" stroke="#797979" fill="none" />
  <path d="M 226 225.5  C 224.32 225.5  223 224.18  223 222.5  C 223 220.82  224.32 219.5  226 219.5  C 227.68 219.5  229 220.82  229 222.5  C 229 224.18  227.68 225.5  226 225.5  " fill-rule="nonzero" fill="#797979" stroke="none" />
</svg>