<?xml version="1.0" encoding="utf-8"?>
<svg version="1.1" xmlns:xlink="http://www.w3.org/1999/xlink" width="27px" height="27px" xmlns="http://www.w3.org/2000/svg">
  <g transform="matrix(1 0 0 1 -116 -298 )">
    <path d="M 20.8035120396912 0.107326220114512  L 20.8060119705292 0.107326220114512  L 23.2409623977017 0.107326220114512  C 24.2491561574005 0.107326220114512  25.1100314997592 0.464461798547196  25.8232312682202 1.17873298177975  C 26.5360739082968 1.89264700917701  26.8924952021484 2.75191522992027  26.8924952021484 3.75975186087329  L 26.8924952021484 6.19648796030875  C 26.8924952021484 6.53130258145602  26.7746404575128 6.81790389077215  26.5353596237158 7.05575618105201  C 26.2984001690256 7.29378704906892  26.0110845751284 7.4128917594847  25.6751985662992 7.41289178549069  C 25.3393125571088 7.41289178549069  25.0512827049979 7.2937870757973  24.8143232239405 7.05575618105201  C 24.5757566487184 6.8177253130351  24.4568304903949 6.53130258073363  24.4568305167621 6.19648796030875  L 24.4568305167621 3.75993043824914  C 24.4568305167621 3.42529439483893  24.3389757721265 3.13887166289865  24.0996949379682 2.90084076887575  C 23.8625569059022 2.66280990085884  23.5754198893809 2.54370519044307  23.2386410182336 2.54370519008187  L 20.8033334623154 2.54370519008187  C 20.467447453125 2.54370519008187  20.180488988696 2.42460048038848  19.9428152754308 2.18656961237157  C 19.7051415621656 1.94853874435467  19.586036826105 1.66211601205319  19.5860368264662 1.32373001965165  C 19.5860368264662 0.988915398504387  19.7051415361596 0.702314089188248  19.9428152754308 0.464461798186001  C 20.180489014702 0.226430930169091  20.467447453125 0.107326219753317  20.8035120396912 0.107326220114512  Z M 10.2051563691941 0.468211720810147  C 10.4428301084653 0.226430930169092  10.7297885468884 0.107326220114512  11.0656745557176 0.107326220114512  L 15.9348611514876 0.107326220114512  C 16.2712828675219 0.107326220114512  16.5573484696329 0.226430929807899  16.7969864589041 0.468033169440284  C 17.033588783765 0.702492693292489  17.1537649082299 0.992665347134525  17.1537649078687 1.32730139090593  C 17.1537649078687 1.66211601205319  17.033588783765 1.94871732136933  16.7969864589041 2.18656961201038  C 16.5573484696329 2.42460048002729  16.2712828675219 2.54370519044307  15.9348611514876 2.54370519008187  L 11.0656745557176 2.54370519008187  C 10.7297885465272 2.54370519008187  10.4428300820981 2.42460048038849  10.2051563691941 2.18656961201038  C 9.96623266486515 1.94853874399347  9.84766363564855 1.662116011692  9.84766363564855 1.32730139090593  C 9.84766363564855 0.99266534749572  9.96623263849797 0.702314115555438  10.2051563691941 0.468211720810147  Z M 25.6751985662992 9.84534225581924  C 26.0110845754896 9.84534225581924  26.298400169748 9.96801833676691  26.5353596237158 10.2024778342519  C 26.7746404575128 10.4405087022688  26.8924952021484 10.7269314345703  26.8924952021484 11.0653174262495  L 26.8924952021484 15.9345040223807  C 26.8924952021484 16.2691400657909  26.7746404575128 16.5555627977312  26.5353596237158 16.7935936657481  C 26.2984001690256 17.031803111502  26.0110845751284 17.1507292441808  25.6751985662992 17.1507292438196  C 25.3393125571088 17.1507292438196  25.0512827049979 17.031803085496  24.8143232239405 16.7935936657481  C 24.5757566487184 16.5555627977312  24.4568304903949 16.2691400654297  24.4568305167621 15.9345040223807  L 24.4568305167621 11.0653174262495  C 24.4568305167621 10.7269314605763  24.5757566750856 10.440508728636  24.8143232239405 10.2024778342519  C 25.0512826786307 9.96801831039972  25.3393125307417 9.84534225581924  25.6750199885622 9.84534225545805  Z M 25.6769842385622 19.583358291524  L 25.6751985662992 19.583358291524  C 26.0110845754896 19.583358291524  26.298400169748 19.7024630012174  26.5353596237158 19.9404938959627  C 26.7746404575128 20.1785247639796  26.8924952021484 20.464947496281  26.8924952021484 20.8035120396912  L 26.8924952021484 23.2361410877568  C 26.8924952021484 24.2441562700797  26.5360738822908 25.1069958617161  25.8232312682202 25.8212670182202  C 25.1100314990368 26.5316097010916  24.2491561834065 26.8887452795243  23.2409623980629 26.8887452795243  L 20.8060119705292 26.8887452795243  C 20.4692331257491 26.8887452795243  20.1828103670805 26.7698191212008  19.9444223699567 26.5316097014528  C 19.7072843378906 26.2935788334359  19.588001050099 26.0071561011344  19.588001050099 25.6725200580854  C 19.588001050099 25.333955514314  19.7072843378906 25.0475327827349  19.9444223699567 24.8095019139956  C 20.1828103670805 24.5714710459787  20.4694116767578 24.4523663355629  20.8060119705292 24.4523663091957  L 23.2409623980629 24.4523663091957  C 23.5768484072533 24.4523663091957  23.8641640015117 24.3334401508722  24.1007663260113 24.0952307311243  C 24.3404043152825 23.8571998631074  24.4582590595569 23.5707771308059  24.4582590595569 23.2361410877569  L 24.4582590595569 20.7997621170671  C 24.4582590595569 20.4649474959198  24.5777209250856 20.1785247639796  24.8157517674577 19.9404938959627  C 25.0539612132117 19.7024630279457  25.3407410742589 19.58335831753  25.6769842385622 19.583358291524  Z M 3.76135898176637 0.107326220114512  L 6.19648796030875 0.107326220114512  C 6.53273112461205 0.107326220114512  6.81843957161012 0.226430929807899  7.05718472456924 0.468033169440284  C 7.2950370148491 0.702492693292489  7.41414175127087 0.992665347134525  7.41414175127087 1.32730139090593  C 7.41414175127087 1.66211601205319  7.29503704157748 1.94871732136933  7.0573633019451 2.18656961201038  C 6.81843959761612 2.42460048002729  6.53273112425085 2.54370519044307  6.19648796030875 2.54370519008187  L 3.76153753313624 2.54370519008187  C 3.42511581710188 2.54370519008187  3.13762167183487 2.66280989977526  2.90066221714469 2.90084076887575  C 2.66173851281571 3.13887163689266  2.54299093186804 3.42529436919414  2.54299093222924 3.76368036087329  L 2.54299093222924 6.19648796030875  C 2.54299093222924 6.53505250408016  2.42442192937982 6.81790389077215  2.18549819796126 7.05950610403735  C 1.94853874327108 7.2937870501525  1.66086602026702 7.41664168247004  1.32498001143782 7.41664170847603  C 0.988736847134524 7.41664170847603  0.701778407989083 7.2937870757973  0.464461798547196 7.05950610403735  C 0.22571667159407 6.8177253130351  0.107326220114512 6.53505250371896  0.107326220114512 6.19648796030875  L 0.107326220114512 3.76368036087329  C 0.107326220114512 2.75191522992027  0.463747539972174 1.89300416428992  1.17730443862372 1.18230432630565  C 1.89050420780715 0.468033143073094  2.75102239469178 0.11089756464041  3.75939473140518 0.110897565001605  L 3.76153753313624 0.107326220114512  Z M 10.2051563691941 24.8095019139956  C 10.4428301084653 24.5714710459787  10.7297885468884 24.4523663355629  11.0656745557176 24.4523663091957  L 15.9348611514876 24.4523663091957  C 16.2712828675219 24.4523663091957  16.5573484696329 24.5714710188891  16.7969864585429 24.8095019139956  C 17.0335887834038 25.0475327820125  17.1537649078687 25.333955514314  17.1537649078687 25.6725200580854  C 17.1537649078687 26.0071561014956  17.033588783765 26.2935788334359  16.7969864585429 26.5316097014528  C 16.5573484692717 26.7698191472068  16.2712828671607 26.8887452798855  15.9348611514876 26.8887452795243  L 11.0656745557176 26.8887452795243  C 10.7297885465272 26.8887452795243  10.4428300820981 26.7698191212008  10.2051563691941 26.5316097014528  C 9.96623266486515 26.2935788334359  9.84766363564855 26.0071561011344  9.84766363564855 25.6725200580854  C 9.84766363564855 25.333955514314  9.96623263849797 25.0475327827349  10.2051563691941 24.8095019139956  Z M 1.32730139090593 9.8455208335563  C 1.66318740009632 9.8455208335563  1.94996728714951 9.96801833676691  2.18692674111729 10.2024778342519  C 2.42656473038849 10.4405087022688  2.54459802639394 10.7269314345703  2.54459802675514 11.0653174266107  L 2.54459802675514 15.9345040220195  C 2.54459802675514 16.2691400654297  2.42674328211954 16.55556279737  2.18692674111729 16.7935936657481  C 1.94996728642712 17.031803111502  1.66318739973513 17.1507292441808  1.32730139090593 17.1507292438196  C 0.990879674871575 17.1507292438196  0.703385529604559 17.031803085496  0.466426048547196 16.7935936657481  C 0.227502344218215 16.5555627970088  0.108754763631742 16.2691400654297  0.108754763631742 15.9345040220195  L 0.108754763631742 11.0653174262495  C 0.108754763631742 10.7269314605763  0.227502344579409 10.440508728636  0.466426048547196 10.2024778342519  C 0.703385503237371 9.96801831039972  0.990879648865581 9.84534225581924  1.32712281280768 9.84534225545805  Z M 1.32872993370077 19.5869296627783  L 1.32730139090593 19.583358291524  C 1.66318740009632 19.583358291524  1.94996728714951 19.7024630012174  2.18692674111729 19.9404938959627  C 2.42656473038849 20.1785247639796  2.54459802639394 20.464947496281  2.54459802675514 20.8035120396912  L 2.54459802675514 23.2361410877568  C 2.54459802675514 23.57452705343  2.66352418507866 23.8611283631073  2.90209076030073 24.0989806537484  C 3.14012162831764 24.3370115217653  3.42708006710188 24.4561162321811  3.76296607665347 24.4561162321811  L 6.19791650346479 24.4561162321811  C 6.53433821949914 24.4561162321811  6.82111810691353 24.5752209418745  7.05950610403735 24.8132518366198  C 7.29664413610338 25.0512827046367  7.41628455336312 25.3377054369381  7.41628457900792 25.6725200580854  C 7.41628457900792 26.0109060237586  7.29664416210937 26.2935788334359  7.05950610403735 26.5353596237158  C 6.82111810691353 26.769819147568  6.53433821949914 26.8924952021484  6.1979165031036 26.8924952021484  L 3.76296607665347 26.8924952021484  C 2.75477231695473 26.8924952021484  1.89461125953821 26.5353596237158  1.18069723177975 25.8210884408444  C 0.467140333489405 25.1069958357101  0.110361884163634 24.2479061919815  0.110361884163634 23.239891010381  L 0.110361884163634 20.8033334623154  C 0.110361884163634 20.4685188411681  0.228930887013057 20.181917531852  0.467854591703232 19.9440652408497  C 0.705885459720141 19.7060343728328  0.992843898504387 19.5869296624171  1.32872993370077 19.5869296627783  Z M 13.5006249828901 7.41271320811483  C 13.8370466989244 7.41271320811483  14.1231123010354 7.53181791780822  14.3627502903066 7.76984878654752  C 14.5993526151675 8.00787965456443  14.7189930324272 8.29430238686591  14.7189930324272 8.62911700765197  L 14.7189930324272 12.2817212261478  L 18.3717758282989 12.2817212261478  C 18.7076618374893 12.2817212261478  18.9940845950744 12.4008259358412  19.2324725929206 12.6388568045805  C 19.4696106249866 12.8768876725974  19.5890724641481 13.1633104048989  19.5890724641481 13.4981250256849  C 19.5890724641481 13.8365109913581  19.4696105986194 14.1231123010354  19.2326511439293 14.3609646180437  C 18.9940845687072 14.5989954860606  18.7076618371281 14.7181001964764  18.3717758282989 14.7181001961152  L 14.7189930324272 14.7181001961152  L 14.7189930324272 18.370704414611  C 14.7189930324272 18.7055190357582  14.5993526155287 18.9921203450744  14.3627502903066 19.2299726357154  C 14.1231123010354 19.4680035037323  13.8370466989244 19.5871082141481  13.5006249828901 19.5871082141481  C 13.1647389736997 19.5871082141481  12.8783162161146 19.4680035044547  12.6401067960055 19.2299726357154  C 12.4020759279886 18.9919417676985  12.2833283466797 18.705519035397  12.2833283470409 18.370704414611  L 12.2833283470409 14.7181001964763  L 8.63072412890625 14.7181001964763  C 8.29465954197881 14.7181001964763  8.00859393986783 14.598995486783  7.7691345276113 14.3609646176825  C 7.53199649554527 14.1229337496656  7.41235607828553 13.8365110173641  7.41235607864672 13.4981250256849  C 7.41235607864672 13.1633104045377  7.53199649554527 12.8767090952215  7.7691345276113 12.6388568045805  C 8.00859393914544 12.4008259365636  8.29465954125642 12.2817212261478  8.63072412890625 12.2817212261478  L 12.2833283470409 12.2817212261478  L 12.2833283470409 8.62911700801316  C 12.2833283470409 8.2943023868659  12.4020759279886 8.00770107754976  12.6401067956443 7.76984878654752  C 12.8783162413982 7.53181791853061  13.1647389733385 7.41271320811483  13.5008035606271 7.41271320775364  Z " fill-rule="nonzero" fill="#aaaaaa" stroke="none" transform="matrix(1 0 0 1 116 298 )" />
  </g>
</svg>