<?xml version="1.0" encoding="utf-8"?>
<svg version="1.1" xmlns:xlink="http://www.w3.org/1999/xlink" width="18px" height="19px" xmlns="http://www.w3.org/2000/svg">
  <g transform="matrix(1 0 0 1 -44 -77 )">
    <path d="M 17.9705390625 9.5110400390625  C 17.9705390625 4.2776162109375  13.95140625 0.0351796875  8.99342578125 0.0351796875  C 4.0354453125 0.0351796875  0.016294921875 4.2776162109375  0.016294921875 9.5110400390625  C 0.016294921875 14.744482421875  4.0354453125 18.986900390625  8.99342578125 18.986900390625  C 13.95140625 18.986900390625  17.9705390625 14.7444638671875  17.9705390625 9.5110400390625  Z M 1.240453125 9.5110400390625  C 1.240453125 4.9914150390625  4.7120625 1.3273466796875  8.99342578125 1.3273466796875  C 13.2755625 1.3273466796875  16.7463984375 4.9914150390625  16.7463984375 9.5110400390625  C 16.7463984375 11.131736328125  16.3000546875 12.6423662109375  15.53009765625 13.913529296875  C 14.239529296875 12.4735185546875  12.52522265625 11.460525390625  10.597728515625 11.0963896484375  C 11.828267578125 10.470076171875  12.679048828125 9.1451044921875  12.679048828125 7.6068837890625  C 12.679048828125 5.4658955078125  11.03487890625 3.7304013671875  9.00657421875 3.7304013671875  C 6.97826953125 3.7304013671875  5.3341171875 5.4658955078125  5.3341171875 7.606865234375  C 5.3341171875 9.1450859375  6.184880859375 10.4700576171875  7.415419921875 11.09637109375  C 5.48019140625 11.46197265625  3.759873046875 12.4816826171875  2.467546875 13.930970703125  C 1.690998046875 12.656189453125  1.240453125 11.1391396484375  1.240453125 9.5110400390625  Z " fill-rule="nonzero" fill="#aaaaaa" stroke="none" transform="matrix(1 0 0 1 44 77 )" />
  </g>
</svg>