<?xml version="1.0" encoding="utf-8"?>
<svg version="1.1" xmlns:xlink="http://www.w3.org/1999/xlink" width="12px" height="12px" viewBox="19 108  12 12" xmlns="http://www.w3.org/2000/svg">
  <path d="M 25 108  C 28.36 108  31 110.64  31 114  C 31 117.36  28.36 120  25 120  C 21.64 120  19 117.36  19 114  C 19 110.64  21.64 108  25 108  Z " fill-rule="nonzero" fill="#ffffff" stroke="none" />
  <path d="M 25 108.5  C 28.08 108.5  30.5 110.92  30.5 114  C 30.5 117.08  28.08 119.5  25 119.5  C 21.92 119.5  19.5 117.08  19.5 114  C 19.5 110.92  21.92 108.5  25 108.5  Z " stroke-width="1" stroke="#797979" fill="none" />
  <path d="M 25 117  C 23.32 117  22 115.68  22 114  C 22 112.32  23.32 111  25 111  C 26.68 111  28 112.32  28 114  C 28 115.68  26.68 117  25 117  " fill-rule="nonzero" fill="#797979" stroke="none" />
</svg>