<?xml version="1.0" encoding="utf-8"?>
<svg version="1.1" xmlns:xlink="http://www.w3.org/1999/xlink" width="12px" height="12px" viewBox="19 196  12 12" xmlns="http://www.w3.org/2000/svg">
  <path d="M 25 196  C 28.36 196  31 198.64  31 202  C 31 205.36  28.36 208  25 208  C 21.64 208  19 205.36  19 202  C 19 198.64  21.64 196  25 196  Z " fill-rule="nonzero" fill="#ffffff" stroke="none" />
  <path d="M 25 196.5  C 28.08 196.5  30.5 198.92  30.5 202  C 30.5 205.08  28.08 207.5  25 207.5  C 21.92 207.5  19.5 205.08  19.5 202  C 19.5 198.92  21.92 196.5  25 196.5  Z " stroke-width="1" stroke="#797979" fill="none" />
  <path d="M 25 205  C 23.32 205  22 203.68  22 202  C 22 200.32  23.32 199  25 199  C 26.68 199  28 200.32  28 202  C 28 203.68  26.68 205  25 205  " fill-rule="nonzero" fill="#797979" stroke="none" />
</svg>