<?xml version="1.0" encoding="utf-8"?>
<svg version="1.1" xmlns:xlink="http://www.w3.org/1999/xlink" width="279px" height="10px" preserveAspectRatio="xMinYMid meet" viewBox="192 308  279 8" xmlns="http://www.w3.org/2000/svg">
  <defs>
    <mask fill="white" id="clip91">
      <path d="M 280 299  L 378 299  L 378 324  L 280 324  Z M 182 295  L 483 295  L 483 329  L 182 329  Z " fill-rule="evenodd" />
    </mask>
  </defs>
  <path d="M 280 312  L 198 312  M 378 312  L 454 312  " stroke-width="2" stroke="#0099cc" fill="none" />
  <path d="M 195.5 308.5  A 3.5 3.5 0 0 0 192 312 A 3.5 3.5 0 0 0 195.5 315.5 A 3.5 3.5 0 0 0 199 312 A 3.5 3.5 0 0 0 195.5 308.5 Z M 195.5 310.5  A 1.5 1.5 0 0 1 197 312 A 1.5 1.5 0 0 1 195.5 313.5 A 1.5 1.5 0 0 1 194 312 A 1.5 1.5 0 0 1 195.5 310.5 Z M 452 321.5  L 466 312  L 452 302.5  L 452 321.5  Z " fill-rule="nonzero" fill="#0099cc" stroke="none" mask="url(#clip91)" />
</svg>