<?xml version="1.0" encoding="utf-8"?>
<svg version="1.1" xmlns:xlink="http://www.w3.org/1999/xlink" width="17px" height="17px" xmlns="http://www.w3.org/2000/svg">
  <defs>
    <mask fill="white" id="clip89">
      <path d="M 16.9988409090909 8.48869886363639  C 16.9988409090909 7.34496590909089  16.7748465909091 6.23494318181818  16.33275 5.18963636363637  C 15.9058181818182 4.18035795454546  15.2926590909091 3.27317613636362  14.5156818181819 2.4949431818182  C 13.7362897727273 1.71748295454543  12.8319090909091 1.10664204545455  11.8226306818182 0.679130681818179  C 10.7755852272728 0.236261363636373  9.66604545454544 0.0129431818182013  8.52240909090909 0.0129431818182013  C 7.37867613636365 0.0129431818182013  6.26730113636364 0.236261363636373  5.22218750000002 0.679130681818179  C 4.21525529270161 1.10494808499499  3.30021196100887 1.72154782664288  2.52749431818182 2.4949431818182  C 1.75003409090914 3.27317613636362  1.13851704545453 4.18035795454546  0.71168181818183 5.18963636363637  C 0.269488636363633 6.23475000000002  0.0454943181817953 7.34496590909092  0.0454943181817953 8.48869886363639  C 0.0454943181817953 9.6324318181818  0.269488636363633 10.7423579545455  0.71168181818183 11.7882443181818  C 1.13851704545453 12.7986818181818  1.7497443181818 13.7030625  2.52749431818182 14.4812954545455  C 3.29987713366711 15.2559972786406  4.21494662644108 15.8738282688869  5.22218750000002 16.3006818181818  C 6.26730113636364 16.7415227272728  7.37877272727275 16.9657102272728  8.52240909090909 16.9657102272728  C 9.66604545454544 16.9657102272728  10.7756818181818 16.7416193181818  11.8226306818182 16.3006818181818  C 12.8319090909091 15.8725909090909  13.7362897727273 15.2605909090909  14.5156818181819 14.4812954545455  C 15.2939147727272 13.7030625  15.9058181818182 12.7986818181818  16.33275 11.7882443181818  C 16.7748465909091 10.7426477272727  16.9988409090909 9.6324318181818  16.9988409090909 8.48869886363639  Z M 15.83975 8.48889204545455  C 15.83975 12.5241704545455  12.5572045454546 15.8056534090909  8.52240909090909 15.8056534090909  C 4.48635795454544 15.8056534090909  1.20332954545461 12.5241704545455  1.20332954545461 8.48889204545455  C 1.20332954545461 4.4540965909091  4.48635795454544 1.17097159090909  8.52240909090909 1.17097159090909  C 12.5572045454546 1.17097159090909  15.83975 4.45399999999998  15.83975 8.48889204545455  Z M 9.0795454545455 8.68313636363638  L 10.890625 8.68313636363638  C 11.2238488279938 8.68313636363638  11.4939801136364 8.4130050779938  11.4939801136364 8.07978125  C 11.4939801136364 7.74655742200619  11.2238488279938 7.47642613636364  10.890625 7.47642613636364  L 9.60422727272726 7.47642613636364  L 11.3929943181818 4.79303409090909  C 11.577706542288 4.51556845507309  11.5029015787218 4.14093862887128  11.2257954545454 3.95568750000001  C 10.9486761363636 3.77042613636362  10.5738068181819 3.84586363636365  10.3884488636364 4.12288636363635  L 8.47594886363635 6.99163636363636  L 6.56344886363632 4.12288636363635  C 6.45163136380751 3.95486984723394  6.26318469437683 3.85391952992893  6.06136124912825 3.85391952992893  C 5.94200001507608 3.85391952992893  5.82532277415083 3.8893369439231  5.72610227272725 3.95568750000001  C 5.55810534598908 4.06753086554892  5.45717294185192 4.25598041980209  5.45717294185192 4.45780188994539  C 5.45717294185192 4.57714926364062  5.49257647868728 4.69381446628179  5.55890340909087 4.79303409090909  L 7.34825000000001 7.47642613636364  L 6.0610795454545 7.47642613636364  C 5.72785571746073 7.47642613636364  5.45772443181824 7.74655742200619  5.45772443181824 8.07978125000002  C 5.45772443181824 8.4130050779938  5.72785571746073 8.68313636363638  6.0610795454545 8.68313636363638  L 7.87215909090907 8.68313636363638  L 7.87215909090907 9.89003977272728  L 6.0610795454545 9.89003977272728  C 5.7278409090909 9.89003977272728  5.45738636363637 10.1604943181818  5.45738636363637 10.4937329545454  C 5.45738636363637 10.8269715909091  5.7278409090909 11.0974261363636  6.0610795454545 11.0974261363636  L 7.87215909090907 11.0974261363636  L 7.87215909090907 12.9085056818182  C 7.87215909090907 13.2417443181818  8.14261363636365 13.5121988636364  8.47585227272731 13.5121988636364  C 8.80909090909086 13.5121988636364  9.0795454545455 13.2417443181818  9.0795454545455 12.9085056818182  L 9.0795454545455 11.0974261363636  L 10.890625 11.0974261363636  C 11.2238636363637 11.0974261363636  11.4943181818182 10.8269715909091  11.4943181818182 10.4937329545454  C 11.4943181818182 10.1604943181818  11.2238636363637 9.89003977272728  10.890625 9.89003977272728  L 9.0795454545455 9.89003977272728  L 9.0795454545455 8.68313636363638  Z " fill-rule="evenodd" />
    </mask>
  </defs>
  <g transform="matrix(1 0 0 1 -17 -211 )">
    <path d="M 16.9988409090909 8.48869886363639  C 16.9988409090909 7.34496590909089  16.7748465909091 6.23494318181818  16.33275 5.18963636363637  C 15.9058181818182 4.18035795454546  15.2926590909091 3.27317613636362  14.5156818181819 2.4949431818182  C 13.7362897727273 1.71748295454543  12.8319090909091 1.10664204545455  11.8226306818182 0.679130681818179  C 10.7755852272728 0.236261363636373  9.66604545454544 0.0129431818182013  8.52240909090909 0.0129431818182013  C 7.37867613636365 0.0129431818182013  6.26730113636364 0.236261363636373  5.22218750000002 0.679130681818179  C 4.21525529270161 1.10494808499499  3.30021196100887 1.72154782664288  2.52749431818182 2.4949431818182  C 1.75003409090914 3.27317613636362  1.13851704545453 4.18035795454546  0.71168181818183 5.18963636363637  C 0.269488636363633 6.23475000000002  0.0454943181817953 7.34496590909092  0.0454943181817953 8.48869886363639  C 0.0454943181817953 9.6324318181818  0.269488636363633 10.7423579545455  0.71168181818183 11.7882443181818  C 1.13851704545453 12.7986818181818  1.7497443181818 13.7030625  2.52749431818182 14.4812954545455  C 3.29987713366711 15.2559972786406  4.21494662644108 15.8738282688869  5.22218750000002 16.3006818181818  C 6.26730113636364 16.7415227272728  7.37877272727275 16.9657102272728  8.52240909090909 16.9657102272728  C 9.66604545454544 16.9657102272728  10.7756818181818 16.7416193181818  11.8226306818182 16.3006818181818  C 12.8319090909091 15.8725909090909  13.7362897727273 15.2605909090909  14.5156818181819 14.4812954545455  C 15.2939147727272 13.7030625  15.9058181818182 12.7986818181818  16.33275 11.7882443181818  C 16.7748465909091 10.7426477272727  16.9988409090909 9.6324318181818  16.9988409090909 8.48869886363639  Z M 15.83975 8.48889204545455  C 15.83975 12.5241704545455  12.5572045454546 15.8056534090909  8.52240909090909 15.8056534090909  C 4.48635795454544 15.8056534090909  1.20332954545461 12.5241704545455  1.20332954545461 8.48889204545455  C 1.20332954545461 4.4540965909091  4.48635795454544 1.17097159090909  8.52240909090909 1.17097159090909  C 12.5572045454546 1.17097159090909  15.83975 4.45399999999998  15.83975 8.48889204545455  Z M 9.0795454545455 8.68313636363638  L 10.890625 8.68313636363638  C 11.2238488279938 8.68313636363638  11.4939801136364 8.4130050779938  11.4939801136364 8.07978125  C 11.4939801136364 7.74655742200619  11.2238488279938 7.47642613636364  10.890625 7.47642613636364  L 9.60422727272726 7.47642613636364  L 11.3929943181818 4.79303409090909  C 11.577706542288 4.51556845507309  11.5029015787218 4.14093862887128  11.2257954545454 3.95568750000001  C 10.9486761363636 3.77042613636362  10.5738068181819 3.84586363636365  10.3884488636364 4.12288636363635  L 8.47594886363635 6.99163636363636  L 6.56344886363632 4.12288636363635  C 6.45163136380751 3.95486984723394  6.26318469437683 3.85391952992893  6.06136124912825 3.85391952992893  C 5.94200001507608 3.85391952992893  5.82532277415083 3.8893369439231  5.72610227272725 3.95568750000001  C 5.55810534598908 4.06753086554892  5.45717294185192 4.25598041980209  5.45717294185192 4.45780188994539  C 5.45717294185192 4.57714926364062  5.49257647868728 4.69381446628179  5.55890340909087 4.79303409090909  L 7.34825000000001 7.47642613636364  L 6.0610795454545 7.47642613636364  C 5.72785571746073 7.47642613636364  5.45772443181824 7.74655742200619  5.45772443181824 8.07978125000002  C 5.45772443181824 8.4130050779938  5.72785571746073 8.68313636363638  6.0610795454545 8.68313636363638  L 7.87215909090907 8.68313636363638  L 7.87215909090907 9.89003977272728  L 6.0610795454545 9.89003977272728  C 5.7278409090909 9.89003977272728  5.45738636363637 10.1604943181818  5.45738636363637 10.4937329545454  C 5.45738636363637 10.8269715909091  5.7278409090909 11.0974261363636  6.0610795454545 11.0974261363636  L 7.87215909090907 11.0974261363636  L 7.87215909090907 12.9085056818182  C 7.87215909090907 13.2417443181818  8.14261363636365 13.5121988636364  8.47585227272731 13.5121988636364  C 8.80909090909086 13.5121988636364  9.0795454545455 13.2417443181818  9.0795454545455 12.9085056818182  L 9.0795454545455 11.0974261363636  L 10.890625 11.0974261363636  C 11.2238636363637 11.0974261363636  11.4943181818182 10.8269715909091  11.4943181818182 10.4937329545454  C 11.4943181818182 10.1604943181818  11.2238636363637 9.89003977272728  10.890625 9.89003977272728  L 9.0795454545455 9.89003977272728  L 9.0795454545455 8.68313636363638  Z " fill-rule="nonzero" fill="#ffffff" stroke="none" transform="matrix(1 0 0 1 17 211 )" />
    <path d="M 16.9988409090909 8.48869886363639  C 16.9988409090909 7.34496590909089  16.7748465909091 6.23494318181818  16.33275 5.18963636363637  C 15.9058181818182 4.18035795454546  15.2926590909091 3.27317613636362  14.5156818181819 2.4949431818182  C 13.7362897727273 1.71748295454543  12.8319090909091 1.10664204545455  11.8226306818182 0.679130681818179  C 10.7755852272728 0.236261363636373  9.66604545454544 0.0129431818182013  8.52240909090909 0.0129431818182013  C 7.37867613636365 0.0129431818182013  6.26730113636364 0.236261363636373  5.22218750000002 0.679130681818179  C 4.21525529270161 1.10494808499499  3.30021196100887 1.72154782664288  2.52749431818182 2.4949431818182  C 1.75003409090914 3.27317613636362  1.13851704545453 4.18035795454546  0.71168181818183 5.18963636363637  C 0.269488636363633 6.23475000000002  0.0454943181817953 7.34496590909092  0.0454943181817953 8.48869886363639  C 0.0454943181817953 9.6324318181818  0.269488636363633 10.7423579545455  0.71168181818183 11.7882443181818  C 1.13851704545453 12.7986818181818  1.7497443181818 13.7030625  2.52749431818182 14.4812954545455  C 3.29987713366711 15.2559972786406  4.21494662644108 15.8738282688869  5.22218750000002 16.3006818181818  C 6.26730113636364 16.7415227272728  7.37877272727275 16.9657102272728  8.52240909090909 16.9657102272728  C 9.66604545454544 16.9657102272728  10.7756818181818 16.7416193181818  11.8226306818182 16.3006818181818  C 12.8319090909091 15.8725909090909  13.7362897727273 15.2605909090909  14.5156818181819 14.4812954545455  C 15.2939147727272 13.7030625  15.9058181818182 12.7986818181818  16.33275 11.7882443181818  C 16.7748465909091 10.7426477272727  16.9988409090909 9.6324318181818  16.9988409090909 8.48869886363639  Z " stroke-width="2" stroke="#797979" fill="none" transform="matrix(1 0 0 1 17 211 )" mask="url(#clip89)" />
    <path d="M 15.83975 8.48889204545455  C 15.83975 12.5241704545455  12.5572045454546 15.8056534090909  8.52240909090909 15.8056534090909  C 4.48635795454544 15.8056534090909  1.20332954545461 12.5241704545455  1.20332954545461 8.48889204545455  C 1.20332954545461 4.4540965909091  4.48635795454544 1.17097159090909  8.52240909090909 1.17097159090909  C 12.5572045454546 1.17097159090909  15.83975 4.45399999999998  15.83975 8.48889204545455  Z " stroke-width="2" stroke="#797979" fill="none" transform="matrix(1 0 0 1 17 211 )" mask="url(#clip89)" />
    <path d="M 9.0795454545455 8.68313636363638  L 10.890625 8.68313636363638  C 11.2238488279938 8.68313636363638  11.4939801136364 8.4130050779938  11.4939801136364 8.07978125  C 11.4939801136364 7.74655742200619  11.2238488279938 7.47642613636364  10.890625 7.47642613636364  L 9.60422727272726 7.47642613636364  L 11.3929943181818 4.79303409090909  C 11.577706542288 4.51556845507309  11.5029015787218 4.14093862887128  11.2257954545454 3.95568750000001  C 10.9486761363636 3.77042613636362  10.5738068181819 3.84586363636365  10.3884488636364 4.12288636363635  L 8.47594886363635 6.99163636363636  L 6.56344886363632 4.12288636363635  C 6.45163136380751 3.95486984723394  6.26318469437683 3.85391952992893  6.06136124912825 3.85391952992893  C 5.94200001507608 3.85391952992893  5.82532277415083 3.8893369439231  5.72610227272725 3.95568750000001  C 5.55810534598908 4.06753086554892  5.45717294185192 4.25598041980209  5.45717294185192 4.45780188994539  C 5.45717294185192 4.57714926364062  5.49257647868728 4.69381446628179  5.55890340909087 4.79303409090909  L 7.34825000000001 7.47642613636364  L 6.0610795454545 7.47642613636364  C 5.72785571746073 7.47642613636364  5.45772443181824 7.74655742200619  5.45772443181824 8.07978125000002  C 5.45772443181824 8.4130050779938  5.72785571746073 8.68313636363638  6.0610795454545 8.68313636363638  L 7.87215909090907 8.68313636363638  L 7.87215909090907 9.89003977272728  L 6.0610795454545 9.89003977272728  C 5.7278409090909 9.89003977272728  5.45738636363637 10.1604943181818  5.45738636363637 10.4937329545454  C 5.45738636363637 10.8269715909091  5.7278409090909 11.0974261363636  6.0610795454545 11.0974261363636  L 7.87215909090907 11.0974261363636  L 7.87215909090907 12.9085056818182  C 7.87215909090907 13.2417443181818  8.14261363636365 13.5121988636364  8.47585227272731 13.5121988636364  C 8.80909090909086 13.5121988636364  9.0795454545455 13.2417443181818  9.0795454545455 12.9085056818182  L 9.0795454545455 11.0974261363636  L 10.890625 11.0974261363636  C 11.2238636363637 11.0974261363636  11.4943181818182 10.8269715909091  11.4943181818182 10.4937329545454  C 11.4943181818182 10.1604943181818  11.2238636363637 9.89003977272728  10.890625 9.89003977272728  L 9.0795454545455 9.89003977272728  L 9.0795454545455 8.68313636363638  Z " stroke-width="2" stroke="#797979" fill="none" transform="matrix(1 0 0 1 17 211 )" mask="url(#clip89)" />
  </g>
</svg>