<?xml version="1.0" encoding="utf-8"?>
<svg version="1.1" xmlns:xlink="http://www.w3.org/1999/xlink" width="12px" height="12px" viewBox="692 217.5  12 12" xmlns="http://www.w3.org/2000/svg">
  <path d="M 698 217.5  C 701.36 217.5  704 220.14  704 223.5  C 704 226.86  701.36 229.5  698 229.5  C 694.64 229.5  692 226.86  692 223.5  C 692 220.14  694.64 217.5  698 217.5  Z " fill-rule="nonzero" fill="#ffffff" stroke="none" />
  <path d="M 698 218  C 701.08 218  703.5 220.42  703.5 223.5  C 703.5 226.58  701.08 229  698 229  C 694.92 229  692.5 226.58  692.5 223.5  C 692.5 220.42  694.92 218  698 218  Z " stroke-width="1" stroke="#797979" fill="none" />
  <path d="M 698 226.5  C 696.32 226.5  695 225.18  695 223.5  C 695 221.82  696.32 220.5  698 220.5  C 699.68 220.5  701 221.82  701 223.5  C 701 225.18  699.68 226.5  698 226.5  " fill-rule="nonzero" fill="#797979" stroke="none" />
</svg>