<?xml version="1.0" encoding="utf-8"?>
<svg version="1.1" xmlns:xlink="http://www.w3.org/1999/xlink" width="18px" height="18px" xmlns="http://www.w3.org/2000/svg">
  <g transform="matrix(1 0 0 1 -309 -32 )">
    <path d="M 7.74715686328125 7.79810030859375  C 5.8904663203125 7.79810030859375  4.33042632421875 6.41293117382813  4.33042632421875 4.55204132226563  C 4.33042632421875 2.69085151757813  5.86617036328125 1.19950008398438  7.72256097070312 1.19950008398438  C 9.578651625 1.19950008398438  11.1143956640625 2.69085151757813  11.1143956640625 4.55204132226563  C 11.1143956640625 6.41293117382813  9.60324751757813 7.79810030859375  7.74715686328125 7.79810030859375  Z M 2.15698856835938 16.7984002617187  C 1.60238100585938 16.8058990195313  1.15485558398437 16.2194967421875  1.14735682617187 15.6633894316406  L 1.14735682617187 15.6354940898437  C 1.14735682617187 12.2343609375  3.77191940625 9.42292951171875  7.09296590039063 9.10318280273437  L 7.79994806835938 8.99850025195313  C 8.56692024609375 8.9385102421875  9.646440328125 8.84312615039062  10.2160453886719 8.33291117578125  L 10.4758020878906 8.14274288085937  C 11.5637207695313 7.24289285742188  12.2011145332031 5.9624062734375  12.2011145332031 4.55204132226562  C 12.2011145332031 2.05135809960938  10.1545556308594 0  7.602281015625 0  C 5.23747515234375 0  3.19271593359375 2.05135809960938  3.19271593359375 4.55204132226563  C 3.19271593359375 5.96240625585938  3.83070960351563 7.24259290429687  4.91832833203125 8.14244292773437  L 5.23747515234375 8.33291117578125  L 4.91892823828125 8.46308947851563  C 1.97521885546875 9.61339775976563  0.000347994140625 12.4338276914063  0.000347994140625 15.6354940898438  C -0.0107501484375 16.8283952753906  0.9367919296875 17.98590234375  2.12639366601563 17.9970005039063  L 7.79994806835937 17.9970005039063  C 7.98981642773437 17.9970005039063  8.39804837695312 17.6970504902344  8.39804837695312 17.3971004765625  C 8.39804837695312 17.0977503691406  7.98981641015625 16.7984002617187  7.79994806835937 16.7984002617187  L 2.15698856835938 16.7984002617187  Z M 16.9013311699219 13.4545575761719  C 16.9913161757813 13.6444259355469  16.9202280234375 13.9044825878906  16.9202280234375 14.0961506484375  C 15.9627875976562 14.225429109375  15.2540057285156 14.9942009707031  15.2540057285156 16.0149308378906  C 15.2540057285156 16.2053990859375  15.3139957382812 16.4654557558594  15.383584125 16.5959340117188  L 14.5554221601562 17.0458590234375  L 14.2368752460938 16.7261123144531  C 13.8568385917969 16.4651558027344  13.5382916777344 16.3466755488281  13.1492565175781 16.3466755488281  C 12.8283100136719 16.3466755488281  12.4503729960937 16.4756540566406  12.0613378359375 16.7261123144531  C 11.9314594863281 16.8550908222656  11.8018810722656 16.9165805625  11.7412911738281 17.0458590234375  L 10.9740190605469 16.5959340117188  C 11.0337091171875 16.4654557558594  11.1029975683594 16.2152974511719  11.1029975507812 16.0149308378906  C 11.1070483524321 15.0482150929739  10.3947872165107 14.2278451855451  9.43707520898437 14.0961506484375  C 9.43707520898437 13.9653724394531  9.37618535742187 13.7152141347656  9.37618535742187 13.4545575761719  C 9.37618535742187 13.2643892636719  9.43707520898437 13.0043326113281  9.43707520898437 12.8144642519531  C 10.3933158398437 12.6836860429687  11.1032975039063 11.9134144335938  11.1032975039063 10.8938843613281  C 11.1032975039063 10.7028162070313  11.0436074472656 10.4439593496094  10.9743189960937 10.3143809355469  L 11.8021810253906 9.86325612890625  C 11.8621710351563 9.92354607421875  11.9905496367188 10.0537243769531  12.121327828125 10.1242126230469  C 12.4992648457031 10.3836693867188  12.8202113496094 10.5036493886719  13.1396581230469 10.5036493886719  C 13.4579050839844 10.5036493886719  13.7776517929688 10.3740709921875  14.1561886992187 10.1242126230469  C 14.2869669082031 9.9946342265625  14.4156454628906 9.933744375  14.47683525 9.86325612890625  L 15.3046972792969 10.3143809355469  C 15.2447072695312 10.4439593320313  15.1736191171875 10.6944175898438  15.1736191171875 10.8938843613281  C 15.1697082769175 11.8615380958745  15.8827015255824 12.6826344538141  16.8413411601562 12.8144642519531  C 16.8413411601562 12.9440426484375  16.9013311699219 13.19450090625  16.9013311699219 13.4545575761719  Z M 17.8191781875 12.4947175429687  C 17.7579883828125 12.1737710390625  17.4985316367188 11.9140143222656  17.2402746855469 11.9140143222656  L 17.1796847695312 11.9140143222656  C 16.6022809980469 11.9140143222656  16.1631541933594 11.4637893574219  16.1631541933594 10.8938843613281  C 16.1631541933594 10.7637060585938  16.22284425 10.5729378574219  16.22284425 10.5138476894531  C 16.3512228515625 10.1938010273438  16.22284425 9.812564578125  15.9627875976562 9.61339775976563  L 14.815778765625 8.973304453125  L 14.4957321035156 8.973304453125  C 14.3076634453125 8.973304453125  14.0476067929687 9.03299450976563  13.9180283789062 9.23276119921875  C 13.7881500292969 9.36323945507813  13.4087132636719 9.6832861171875  13.150156359375 9.6832861171875  C 12.8900997070312 9.6832861171875  12.5106629414062 9.36323945507813  12.3207945996094 9.23276119921875  C 12.1921160449219 9.10318280273438  12.001647796875 8.97330443554688  11.7421910332031 8.973304453125  C 11.6138124316406 8.973304453125  11.5535224863281 8.973304453125  11.4827342695312 9.0329944921875  L 10.2664369863281 9.67308781640625  C 10.0063803339844 9.86325612890625  9.88640033203125 10.2528911777344  10.0063803339844 10.5729378398438  C 10.0063803339844 10.5729378398438  10.066070390625 10.7637060410156  10.0660703730469 10.9535744003906  C 10.0661650053048 10.9592011990297  10.0662123239427 10.964828693912  10.0662123239427 10.9704562882638  C 10.0662123239427 11.524913000348  9.61673635048008 11.9743889738107  9.06227963839587 11.9743889738107  C 9.05793290267614 11.9743889738107  9.05358621279256 11.9743607436639  9.04923984375 11.9743042851563  L 8.9883499921875 11.9743042851563  C 8.72889322851562 11.9743042851563  8.47933483007812 12.235260796875  8.40974642578125 12.5544075996094  C 8.40974642578125 12.614397609375  8.28076791796875 13.0643226210938  8.28076793554687 13.5154474277344  C 8.28076793554687 13.8963839414063  8.3401580390625 14.4158973574219  8.40974642578125 14.4737876953125  C 8.47033632421875 14.7953341054688  8.72829333984375 15.0556907109375  8.9883499921875 15.0556907109375  L 9.049539796875 15.0556907109375  C 9.62784341015625 15.0556907109375  10.0660703730469 15.5059156757813  10.0660703730469 16.0764205957031  C 10.0660703730469 16.2053991035156  10.0063803164062 16.3955673984375  10.0063803339844 16.4546575488281  C 9.87770177929687 16.7762039589844  10.0063803339844 17.1541409765625  10.2664369863281 17.3551074785156  L 11.4125459589844 17.9970005039063  C 11.5436241210938 17.9370104941406  11.6036141132813 17.9370104941406  11.7322926679688 17.9370104941406  C 11.9221610273437 17.9370104941406  12.1816177734375 17.877020484375  12.312396 17.67545409375  C 12.4410745546875 17.5458756972656  12.8205113203125 17.1676387265625  13.1402580117187 17.1676387265625  C 13.3997147753906 17.1676387265625  13.8370418789063 17.4867855292969  13.9681200410156 17.67545409375  C 14.0970985488281 17.8062323027344  14.287566796875 17.9367105585937  14.5470235605469 17.9367105410156  C 14.6754021621094 17.9367105410156  14.7359920605469 17.9367105410156  14.8652705214844 17.8770205019531  L 16.0119794003906 17.2363272714844  C 16.2714361640625 17.0464589121094  16.3923160078125 16.6568238632812  16.2714361464844 16.334677546875  C 16.2714361464844 16.334677546875  16.2126459492188 16.1463089355469  16.2126459492188 15.9558406875  C 16.2126459492188 15.3754374199219  16.6619710546875 14.9351108027344  17.2306762734375 14.9351108203125  L 17.2903663300781 14.9351108203125  C 17.5492231875 14.9351108203125  17.7990815390625 14.6741543085938  17.8680700546875 14.3550075058594  C 17.8680700546875 14.3550075058594  17.997348515625 13.8453924375  17.9973484980469 13.3939676777344  C 17.8782683378906 13.073921015625  17.8191781875 12.5640060117187  17.8191781875 12.4947175429687  Z M 13.9780183886719 13.4548575292969  C 13.9870168945313 13.9047825410156  13.597981734375 14.2851191484375  13.150156359375 14.2851191484375  C 12.7008312539063 14.2851191484375  12.3207945820313 13.9044825878906  12.3207945996094 13.4545575761719  C 12.3207945996094 13.0043326113281  12.7008312539063 12.6239960039062  13.150156359375 12.6239960039062  C 13.5982816699219 12.6239960039062  13.9780183886719 13.0043326113281  13.9780183886719 13.4548575292969  Z M 14.8754688046875 13.1945009238281  C 14.7557887558594 12.4344275976563  14.1765852832031 11.8537243945312  13.4687032734375 11.7244459335937  C 12.2509062421875 11.463489421875  11.1638874023438 12.5544075996094  11.4230442128906 13.8348941835937  C 11.553222515625 14.534677546875  12.121927734375 15.1144809257812  12.8289099023437 15.2440593222656  C 14.0476067929688 15.5059156757812  15.1349255683594 14.4152974511719  14.8754688046875 13.1945009238281  Z " fill-rule="nonzero" fill="#aaaaaa" stroke="none" transform="matrix(1 0 0 1 309 32 )" />
  </g>
</svg>