<?xml version="1.0" encoding="utf-8"?>
<svg version="1.1" xmlns:xlink="http://www.w3.org/1999/xlink" width="17px" height="17px" xmlns="http://www.w3.org/2000/svg">
  <g transform="matrix(1 0 0 1 -340 -33 )">
    <path d="M 16.9160365853659 8.51865853658537  C 16.9108950463745 3.85842897586832  13.1343149265707 0.0818488560645469  8.47408536585366 0.0767073170731706  C 3.8117244485016 0.0767073170731706  0.0321341463414614 3.85629761923331  0.0321341463414614 8.51865853658537  C 0.0321341463414614 13.1810194539374  3.8117244485016 16.9606097560976  8.47408536585366 16.9606097560976  C 13.1364462832057 16.9606097560976  16.9160365853659 13.1810194539374  16.9160365853659 8.51865853658537  Z M 8.47408536585366 15.6192682926829  C 4.55252688306123 15.6192682926829  1.3734756097561 12.4402170193778  1.3734756097561 8.51865853658537  C 1.3734756097561 4.59710005379294  4.55252688306123 1.41804878048781  8.47408536585366 1.41804878048781  C 12.3956438486461 1.41804878048781  15.5746951219512 4.59710005379294  15.5746951219512 8.51865853658537  C 15.5746951219512 12.4402170193778  12.3956438486461 15.6192682926829  8.47408536585366 15.6192682926829  Z " fill-rule="nonzero" fill="#aaaaaa" stroke="none" transform="matrix(1 0 0 1 340 33 )" />
  </g>
</svg>